<?xml version="1.0" encoding="utf-8"?>
<!-- Generator: Adobe Illustrator 22.1.0, SVG Export Plug-In . SVG Version: 6.00 Build 0)  -->
<svg version="1.1" id="Layer_1" xmlns="http://www.w3.org/2000/svg" xmlns:xlink="http://www.w3.org/1999/xlink" x="0px" y="0px"
	 viewBox="0 0 354.9 354.9" style="enable-background:new 0 0 354.9 354.9;" xml:space="preserve">
<style type="text/css">
	.st0{fill:#AF8F64;}
	.st1{fill:#91714A;}
	.st2{fill:#D6C9A1;}
	.st3{fill:#C1B48F;}
	.st4{fill:#F2E9C4;}
	.st5{fill:#E2D6A8;}
	.st6{fill:#717A99;}
	.st7{fill:#5865A3;}
	.st8{fill:#494949;}
</style>
<g id="XMLID_26_">
	<g id="XMLID_43_">
		<path id="XMLID_45_" class="st0" d="M276.9,283.7c26.4-24.1,11.2-120.5,11.2-142.4C288.1,59.8,245.3,0,177.4,0
			S66.8,59.8,66.8,141.3c0,21.9-15.2,118.3,11.2,142.4C114.7,317.2,240.2,317.2,276.9,283.7z"/>
		<path id="XMLID_44_" class="st1" d="M288.1,141.3C288.1,59.8,245.3,0,177.4,0v308.8c40.6,0,81.1-8.4,99.5-25.1
			C303.3,259.6,288.1,163.2,288.1,141.3z"/>
	</g>
	<g id="XMLID_40_">
		<path id="XMLID_42_" class="st2" d="M220.6,263.3c0,0-14.5-18.4-14.5-81.4h-26.2h-5h-26.2c0,63-14.5,81.4-14.5,81.4
			c0,47.4,28.8,48.8,40.7,53.2v1.5c0,0,0.9-0.2,2.5-0.7c1.6,0.5,2.5,0.7,2.5,0.7v-1.5C191.8,312.2,220.6,310.7,220.6,263.3z"/>
		<path id="XMLID_41_" class="st3" d="M206.2,182h-26.2h-2.5v135.5c1.6,0.5,2.5,0.7,2.5,0.7v-1.5c11.9-4.4,40.7-5.9,40.7-53.2
			C220.6,263.3,206.2,244.9,206.2,182z"/>
	</g>
	<g id="XMLID_37_">
		<path id="XMLID_39_" class="st4" d="M241.1,120.8c0,0-0.1,0-0.1,0c-0.2,0-0.5,0-0.8-0.1c0,0-0.1,0-0.1,0c-0.3,0-0.5,0-0.8-0.1
			c-0.1,0-0.1,0-0.2,0c-0.4,0-0.7-0.1-1.1-0.1c0,0,0,0,0,0c-0.4,0-0.8-0.1-1.2-0.1c-0.1,0-0.2,0-0.2,0c-0.9-0.1-1.9-0.2-3-0.3
			c-0.1,0-0.2,0-0.3,0c-0.5-0.1-1-0.1-1.6-0.2c0,0-0.1,0-0.1,0c-0.6-0.1-1.2-0.1-1.8-0.2c-0.1,0-0.2,0-0.2,0
			c-0.6-0.1-1.1-0.1-1.7-0.2c-0.1,0-0.2,0-0.2,0c-0.7-0.1-1.3-0.2-2-0.3c0,0-0.1,0-0.1,0c-0.6-0.1-1.3-0.2-2-0.3c-0.1,0-0.2,0-0.3,0
			c-1.4-0.2-2.9-0.5-4.4-0.7c-0.1,0-0.2,0-0.4-0.1c-1.5-0.3-3.1-0.6-4.7-0.9c-0.1,0-0.2,0-0.3-0.1c-0.8-0.2-1.5-0.3-2.3-0.5
			c-0.1,0-0.1,0-0.2,0c-0.8-0.2-1.7-0.4-2.5-0.6c-0.1,0-0.2,0-0.2-0.1c-0.8-0.2-1.5-0.4-2.3-0.5c-0.1,0-0.2-0.1-0.3-0.1
			c-0.9-0.2-1.7-0.4-2.6-0.7c0,0,0,0,0,0c-0.8-0.2-1.7-0.4-2.5-0.7c-0.1,0-0.3-0.1-0.4-0.1c-1.7-0.5-3.4-1-5.2-1.5
			c-0.1,0-0.3-0.1-0.4-0.1c-0.8-0.3-1.7-0.5-2.5-0.8c0,0,0,0-0.1,0c-0.9-0.3-1.7-0.6-2.6-0.9c-0.1,0-0.3-0.1-0.4-0.1
			c-0.8-0.3-1.5-0.6-2.3-0.9c-0.1,0-0.2-0.1-0.3-0.1c-0.9-0.3-1.7-0.7-2.6-1c-0.1,0-0.2-0.1-0.3-0.1c-0.8-0.3-1.5-0.6-2.3-1
			c-0.1-0.1-0.3-0.1-0.4-0.2c-0.8-0.4-1.7-0.8-2.5-1.2l0,0c-10.9-5.3-20.5-12.4-26.1-22.1c-1.6-2.8-3.1-5.4-4.5-8
			c-6.8,14.9-21.7,32.8-34,40.9c0.7,22.7,4.3,43.5,8.5,51.2c9,16.7,29.2,39,55.7,39c26.4,0,46.6-22.3,55.7-39
			c3.9-7.2,7.3-26,8.3-47.1C241.3,120.9,241.2,120.9,241.1,120.8z"/>
		<path id="XMLID_38_" class="st5" d="M241.1,120.8c0,0-0.1,0-0.1,0c-0.2,0-0.5,0-0.8-0.1c0,0-0.1,0-0.1,0c-0.3,0-0.5,0-0.8-0.1
			c-0.1,0-0.1,0-0.2,0c-0.4,0-0.7-0.1-1.1-0.1c0,0,0,0,0,0c-0.4,0-0.8-0.1-1.2-0.1c-0.1,0-0.2,0-0.2,0c-0.9-0.1-1.9-0.2-3-0.3
			c-0.1,0-0.2,0-0.3,0c-0.5-0.1-1-0.1-1.6-0.2c0,0-0.1,0-0.1,0c-0.6-0.1-1.2-0.1-1.8-0.2c-0.1,0-0.2,0-0.2,0
			c-0.6-0.1-1.1-0.1-1.7-0.2c-0.1,0-0.2,0-0.2,0c-0.7-0.1-1.3-0.2-2-0.3c0,0-0.1,0-0.1,0c-0.6-0.1-1.3-0.2-2-0.3c-0.1,0-0.2,0-0.3,0
			c-1.4-0.2-2.9-0.5-4.4-0.7c-0.1,0-0.2,0-0.4-0.1c-1.5-0.3-3.1-0.6-4.7-0.9c-0.1,0-0.2,0-0.3-0.1c-0.8-0.2-1.5-0.3-2.3-0.5
			c-0.1,0-0.1,0-0.2,0c-0.8-0.2-1.7-0.4-2.5-0.6c-0.1,0-0.2,0-0.2-0.1c-0.8-0.2-1.5-0.4-2.3-0.5c-0.1,0-0.2-0.1-0.3-0.1
			c-0.9-0.2-1.7-0.4-2.6-0.7c0,0,0,0,0,0c-0.8-0.2-1.7-0.4-2.5-0.7c-0.1,0-0.3-0.1-0.4-0.1c-1.7-0.5-3.4-1-5.2-1.5
			c-0.1,0-0.3-0.1-0.4-0.1c-0.8-0.3-1.7-0.5-2.5-0.8c0,0,0,0-0.1,0c-0.9-0.3-1.7-0.6-2.6-0.9c-0.1,0-0.3-0.1-0.4-0.1
			c-0.8-0.3-1.5-0.6-2.3-0.9c-0.1,0-0.2-0.1-0.3-0.1c-0.9-0.3-1.7-0.7-2.6-1c-0.1,0-0.2-0.1-0.3-0.1c-0.8-0.3-1.5-0.6-2.3-1
			c-0.1-0.1-0.3-0.1-0.4-0.2c-0.8-0.4-1.7-0.8-2.5-1.2l0,0c-0.2-0.1-0.3-0.2-0.5-0.3v101.2c0,0,0,0,0,0c26.4,0,46.6-22.3,55.7-39
			c3.9-7.2,7.3-26,8.3-47.1C241.3,120.9,241.2,120.9,241.1,120.8z"/>
	</g>
	<g id="XMLID_34_">
		<path id="XMLID_36_" class="st6" d="M294.4,354.9h-234v-40.7c0-44.9,31.3-81.4,76.3-81.4l40.7,31l40.7-31
			c44.9,0,76.3,36.4,76.3,81.4L294.4,354.9L294.4,354.9z"/>
		<path id="XMLID_35_" class="st7" d="M218.1,232.8l-40.7,31v91.1h117v-40.7C294.4,269.3,263.1,232.8,218.1,232.8z"/>
	</g>
	<g id="XMLID_27_">
		<path id="XMLID_33_" class="st8" d="M213,230.4c-8.9,13.5-21.5,21.9-35.5,21.9s-26.6-8.4-35.5-21.9h-13.4
			c0.9,37.7,22.5,67.9,49,67.9s48.1-30.2,49-67.9L213,230.4L213,230.4z"/>
		<path id="XMLID_32_" class="st8" d="M213,230.4c-8.9,13.5-21.5,21.9-35.5,21.9v46c26.5,0,48.1-30.2,49-67.9L213,230.4L213,230.4z"
			/>
	</g>
</g>
</svg>
